<!DOCTYPE svg PUBLIC "-//W3C//DTD SVG 1.1//EN" "http://www.w3.org/Graphics/SVG/1.1/DTD/svg11.dtd">
<!-- Uploaded to: SVG Repo, www.svgrepo.com, Transformed by: SVG Repo Mixer Tools -->
<svg fill="#ffffff" width="800px" height="800px" viewBox="0 0 24 24" xmlns="http://www.w3.org/2000/svg" stroke="#ffffff">
<g id="SVGRepo_bgCarrier" stroke-width="0"/>
<g id="SVGRepo_tracerCarrier" stroke-linecap="round" stroke-linejoin="round"/>
<g id="SVGRepo_iconCarrier">
<path d="M7.293,8.707a1,1,0,0,1,0-1.414l4-4a1,1,0,0,1,1.414,0l4,4a1,1,0,1,1-1.414,1.414L12,5.414,8.707,8.707A1,1,0,0,1,7.293,8.707Zm0,8,4,4a1,1,0,0,0,1.414,0l4-4a1,1,0,0,0-1.414-1.414L12,18.586,8.707,15.293a1,1,0,1,0-1.414,1.414Z"/>
</g>
</svg>